<?xml version="1.0" encoding="UTF-8"?>
<svg xmlns="http://www.w3.org/2000/svg" xmlns:xlink="http://www.w3.org/1999/xlink" width="1800px" height="702px" viewBox="0 0 1800 702" version="1.1">
<g id="surface1">
<path style=" stroke:none;fill-rule:nonzero;fill:rgb(0%,0%,0%);fill-opacity:1;" d="M 656.132812 1.546875 C 606.09375 2.390625 593.203125 2.953125 585.773438 5.0625 C 583.523438 5.765625 583.664062 6.1875 586.195312 10.804688 C 587.742188 13.617188 588.703125 16.710938 588.140625 17.976562 C 587.742188 19.101562 588.140625 20.929688 588.984375 21.914062 C 590.671875 24 589.546875 26.671875 586.898438 26.671875 C 585.914062 26.671875 583.242188 29.34375 581.15625 32.578125 C 579.046875 35.953125 574.96875 41.414062 572.179688 44.789062 C 569.367188 48.164062 564.890625 55.171875 562.21875 60.234375 C 558.164062 67.664062 556.476562 69.492188 552.84375 70.476562 C 548.765625 71.601562 548.203125 72.164062 548.625 76.242188 C 548.90625 80.320312 548.203125 81.140625 540.210938 86.34375 C 531.820312 91.828125 527.179688 94.5 507.5625 105.445312 C 456.820312 133.664062 392.484375 182.53125 351.140625 224.226562 C 340.78125 234.75 334.476562 240.09375 332.507812 240.09375 C 330.820312 240.09375 326.484375 238.828125 322.828125 237.28125 C 315.539062 234.328125 294.09375 226.476562 281.0625 222.117188 C 274.195312 219.726562 271.40625 219.445312 267.328125 220.570312 C 264.539062 221.273438 262.289062 222.398438 262.289062 222.960938 C 262.289062 223.523438 259.757812 226.875 256.6875 230.25 C 253.59375 233.625 251.085938 237.703125 251.085938 239.109375 C 251.085938 240.515625 258.65625 255.679688 267.890625 272.648438 C 277.148438 289.78125 284.71875 305.085938 284.71875 306.632812 C 284.71875 308.320312 283.453125 313.664062 281.765625 318.703125 C 275.882812 337.382812 275.882812 336.820312 278.273438 340.476562 C 279.539062 342.445312 280.921875 343.96875 281.203125 343.96875 C 281.625 343.96875 284.4375 338.648438 287.648438 332.039062 C 290.742188 325.453125 293.695312 320.109375 294.234375 320.109375 C 295.359375 320.109375 297.328125 323.625 335.601562 393.820312 C 366.703125 450.960938 368.953125 455.742188 369.9375 467.671875 C 370.359375 475.125 369.9375 477.914062 367.6875 482.554688 L 364.734375 488.179688 L 373.992188 496.171875 C 381.703125 502.921875 383.53125 503.90625 385.335938 502.359375 C 389.414062 498.84375 436.078125 445.21875 436.078125 443.8125 C 436.078125 442.546875 417.445312 425.132812 415.335938 424.289062 C 414.773438 424.148438 410.859375 428.367188 406.640625 433.828125 C 402.445312 439.171875 398.53125 443.671875 397.828125 443.671875 C 397.265625 443.671875 396 441.984375 395.15625 439.734375 C 394.171875 437.625 388.851562 427.523438 383.109375 417.257812 C 377.507812 406.875 373.148438 397.757812 373.429688 396.914062 C 374.414062 394.664062 410.015625 352.40625 420.9375 340.476562 C 423.046875 338.085938 424.875 335.835938 424.875 335.132812 C 424.875 332.882812 430.898438 334.429688 445.195312 340.335938 C 463.546875 348.046875 469.710938 353.25 469.710938 361.101562 C 469.710938 364.195312 468.75 368.554688 467.484375 370.945312 L 465.234375 375.421875 L 473.367188 382.734375 C 477.984375 386.8125 482.34375 390.164062 483.046875 390.304688 C 484.289062 390.304688 496.640625 376.546875 529.148438 339.351562 C 537.984375 329.226562 539.109375 328.40625 542.460938 329.507812 C 544.429688 330.070312 550.3125 330.632812 555.492188 330.492188 L 564.890625 330.351562 L 560.671875 336.539062 C 552 349.171875 548.765625 361.664062 551.15625 373.3125 C 555.070312 392.835938 568.945312 404.765625 590.953125 407.71875 C 614.929688 411.09375 664.265625 387.773438 693 359.695312 C 705.609375 347.203125 717.796875 329.085938 721.851562 316.171875 C 729.5625 292.3125 720.328125 266.484375 699.867188 254.554688 L 693.28125 250.617188 L 703.78125 248.085938 C 709.523438 246.820312 721.570312 244.007812 730.40625 242.179688 C 770.625 233.484375 782.554688 230.53125 783.679688 229.40625 C 784.78125 228.28125 780.304688 204 778.757812 202.3125 C 778.335938 202.03125 772.875 203.15625 766.710938 204.84375 C 760.40625 206.53125 755.085938 207.65625 754.945312 207.515625 C 754.804688 207.234375 753.960938 202.03125 752.976562 196.007812 C 751.992188 189.820312 748.640625 173.390625 745.546875 159.492188 C 736.007812 116.53125 735.726562 114.5625 736.289062 107.835938 C 738.117188 89.71875 759.5625 61.78125 764.742188 71.039062 C 770.765625 81.84375 781.992188 87.046875 793.757812 84.234375 C 809.179688 80.4375 817.03125 66.820312 813.09375 50.414062 C 810.585938 39.867188 801.046875 30.328125 791.109375 28.21875 C 777.492188 25.40625 762.796875 30.1875 750.164062 41.554688 C 743.4375 47.601562 733.21875 62.0625 731.25 68.367188 C 730.6875 69.914062 729.421875 72.023438 728.4375 72.867188 C 727.054688 74.132812 725.929688 71.460938 722.835938 60.09375 C 720.890625 52.21875 718.640625 45.210938 718.078125 44.648438 C 715.96875 42.539062 701.8125 46.617188 696.351562 50.835938 C 686.671875 58.265625 670.992188 65.015625 650.953125 70.195312 C 647.578125 71.039062 644.90625 72.445312 645.046875 73.429688 C 645.1875 79.054688 650.25 97.429688 651.632812 97.992188 C 653.179688 98.414062 670.148438 95.0625 674.625 93.375 C 676.171875 92.8125 677.15625 95.882812 679.125 107.695312 C 680.507812 116.109375 685.007812 137.882812 689.0625 156.117188 C 699.164062 201.328125 700.289062 208.5 697.898438 215.507812 C 696.492188 220.007812 694.804688 221.835938 689.34375 224.648438 C 681.914062 228.421875 682.054688 227.4375 685.007812 243.445312 L 685.992188 248.929688 L 680.367188 248.085938 C 666.070312 245.695312 638.601562 253.570312 601.757812 270.421875 C 573.164062 283.476562 569.085938 285.023438 561.65625 285.023438 C 554.367188 285.023438 552.421875 283.195312 552.421875 276.445312 C 552.421875 268.875 557.742188 264.234375 578.0625 253.851562 C 592.640625 246.398438 596.835938 243.445312 606.515625 233.765625 C 630.46875 209.90625 639.164062 178.59375 629.226562 152.0625 C 622.359375 133.382812 607.640625 118.640625 589.546875 112.171875 C 579.328125 108.398438 578.90625 107.695312 578.625 95.179688 C 578.34375 83.953125 580.171875 82.546875 593.34375 83.8125 C 601.898438 84.515625 603.28125 84.234375 608.203125 81.140625 C 610.992188 79.195312 614.648438 75.257812 616.195312 72.445312 C 617.71875 69.632812 619.6875 67.382812 620.53125 67.382812 C 621.375 67.382812 624.867188 65.976562 628.242188 64.171875 C 631.59375 62.34375 639.164062 59.390625 644.90625 57.703125 C 650.671875 55.875 656.414062 53.625 657.539062 52.640625 C 658.640625 51.65625 663.421875 49.570312 668.039062 48.023438 C 672.65625 46.476562 682.757812 42.960938 690.46875 40.148438 C 698.179688 37.476562 705.890625 35.25 707.414062 35.109375 C 709.101562 35.109375 711.210938 34.125 712.195312 33 C 713.179688 31.875 715.125 30.890625 716.671875 30.890625 C 718.21875 30.890625 725.929688 28.921875 733.78125 26.53125 C 741.492188 24.140625 752.976562 20.789062 759.140625 18.960938 C 765.304688 16.992188 777.632812 13.335938 786.46875 10.804688 C 795.304688 8.132812 805.265625 5.203125 808.617188 4.359375 C 811.851562 3.375 814.5 2.109375 814.5 1.546875 C 814.5 0.140625 736.429688 0.140625 656.132812 1.546875 Z M 621.515625 19.242188 C 626.132812 21.632812 626.132812 21.773438 621.65625 24.84375 C 617.71875 27.375 610.007812 27.515625 601.195312 25.125 C 595.992188 23.859375 593.765625 21.070312 597.820312 21.070312 C 598.945312 21.070312 600.070312 20.226562 600.492188 19.101562 C 602.039062 15.164062 613.804688 15.304688 621.515625 19.242188 Z M 559.429688 101.648438 C 559.429688 106.289062 559.429688 106.289062 551.4375 107.273438 C 547.078125 107.835938 541.757812 108.539062 539.789062 109.101562 C 534.890625 110.203125 537.28125 107.976562 547.5 102.070312 C 558.304688 95.742188 559.429688 95.742188 559.429688 101.648438 Z M 493.546875 134.507812 C 493.546875 135.210938 492.28125 136.898438 490.59375 138.445312 C 484.851562 143.625 475.476562 159.632812 471.960938 170.15625 C 467.203125 184.195312 466.921875 203.15625 471.117188 215.507812 C 480.09375 241.757812 503.507812 259.59375 529.007812 259.734375 L 535.734375 259.734375 L 529.851562 268.453125 C 522.84375 278.835938 520.171875 286.828125 520.171875 298.078125 C 520.171875 303.820312 519.46875 307.335938 517.945312 309.023438 C 515.835938 311.414062 515.132812 311.132812 503.648438 305.367188 C 496.921875 302.132812 479.8125 295.125 465.515625 289.921875 C 451.21875 284.882812 430.195312 277.148438 418.570312 272.789062 C 396.421875 264.65625 388.570312 261.84375 364.59375 253.289062 C 356.484375 250.476562 349.476562 247.664062 348.773438 247.101562 C 347.789062 246.257812 370.78125 222.679688 380.015625 215.367188 C 382.6875 213.117188 389.695312 207.234375 395.4375 202.171875 C 409.3125 189.820312 443.226562 164.414062 458.085938 154.992188 C 464.671875 150.796875 470.976562 146.71875 472.101562 145.734375 C 474.914062 143.484375 491.15625 133.664062 492.5625 133.523438 C 493.125 133.382812 493.546875 133.945312 493.546875 134.507812 Z M 551.578125 141.9375 C 563.625 147.5625 579.609375 166.945312 585.492188 182.671875 C 588.5625 191.085938 588.703125 209.90625 585.773438 215.507812 C 583.242188 220.289062 577.078125 226.335938 572.460938 228.703125 C 567.679688 231.09375 555.210938 230.53125 548.484375 227.4375 C 531.820312 219.867188 513.445312 192.492188 512.039062 172.96875 C 511.078125 157.804688 516.117188 146.296875 526.054688 141.375 C 532.5 138.164062 544.148438 138.445312 551.578125 141.9375 Z M 325.078125 292.59375 C 330.257812 295.265625 349.195312 303.117188 367.125 310.289062 L 399.773438 323.203125 L 397.265625 326.296875 C 395.859375 327.84375 392.203125 332.039062 389.132812 335.554688 C 386.039062 339.070312 379.453125 346.640625 374.414062 352.40625 C 369.375 358.171875 363.632812 364.757812 361.523438 367.148438 C 359.554688 369.398438 357.585938 371.085938 357.164062 370.664062 C 356.90625 370.242188 350.15625 358.570312 342.1875 344.671875 C 334.335938 330.773438 324.09375 313.523438 319.617188 306.351562 C 312.890625 295.546875 311.625 292.734375 312.75 290.484375 C 313.59375 289.078125 314.578125 287.8125 314.976562 287.8125 C 315.257812 287.8125 319.898438 289.921875 325.078125 292.59375 Z M 681.070312 298.21875 C 686.390625 301.007812 690.46875 310.007812 689.34375 316.734375 C 684.585938 345.796875 640.289062 374.4375 609.1875 368.695312 C 603 367.429688 593.625 359.414062 590.953125 352.96875 C 586.757812 342.867188 587.179688 328.125 591.65625 325.59375 C 592.78125 324.890625 605.390625 318.984375 619.546875 312.257812 C 655.710938 295.40625 669.445312 292.171875 681.070312 298.21875 Z M 681.070312 298.21875 "/>
<path style=" stroke:none;fill-rule:nonzero;fill:rgb(0%,0%,0%);fill-opacity:1;" d="M 917.109375 25.40625 C 884.578125 29.625 857.25 50.554688 842.53125 82.125 C 835.242188 97.710938 832.59375 108.960938 831.75 128.460938 C 831.046875 142.78125 831.46875 147.28125 833.976562 157.242188 C 841.265625 186.445312 858.09375 207.65625 883.453125 219.726562 C 897.328125 226.335938 907.992188 228.84375 924.515625 229.828125 C 977.085938 232.78125 1016.320312 197.671875 1024.734375 140.25 C 1026.84375 125.929688 1026 105.445312 1022.625 93.375 C 1017.164062 72.726562 1002.726562 52.5 985.921875 41.273438 C 967.40625 28.921875 939.09375 22.453125 917.109375 25.40625 Z M 946.242188 55.3125 C 960.257812 62.203125 968.671875 87.046875 968.671875 121.875 C 968.671875 139.96875 966.984375 153.585938 962.789062 167.789062 C 955.5 193.054688 945.5625 202.734375 927.46875 202.3125 C 901.265625 201.75 888.796875 178.875 888.796875 131.414062 C 888.796875 107.414062 892.007812 89.859375 899.015625 75.257812 C 906.164062 60.796875 911.625 55.3125 922.148438 52.5 C 930.28125 50.414062 937.992188 51.234375 946.242188 55.3125 Z M 946.242188 55.3125 "/>
<path style=" stroke:none;fill-rule:nonzero;fill:rgb(0%,0%,0%);fill-opacity:1;" d="M 1079.53125 57.84375 C 1078.429688 60.375 1071.5625 74.695312 1064.414062 89.578125 C 1057.265625 104.601562 1051.359375 117.65625 1051.359375 118.5 C 1051.359375 120.046875 1068.1875 127.757812 1071.28125 127.757812 C 1071.703125 127.757812 1073.789062 124.945312 1075.757812 121.59375 C 1085.976562 104.179688 1099.3125 92.671875 1109.390625 92.671875 C 1114.007812 92.671875 1151.4375 105.585938 1161.257812 110.484375 L 1165.3125 112.59375 L 1153.546875 118.921875 C 1147.101562 122.296875 1135.734375 128.742188 1128.445312 133.242188 C 1121.15625 137.742188 1093.125 154.851562 1066.078125 171.28125 C 1039.171875 187.710938 1016.039062 202.171875 1014.796875 203.4375 C 1011.5625 206.671875 1003.289062 227.578125 1004.695312 228.984375 C 1005.257812 229.546875 1029.234375 239.25 1057.6875 250.335938 C 1086.257812 261.5625 1120.054688 274.898438 1132.804688 279.960938 C 1145.554688 285.023438 1156.335938 289.21875 1156.898438 289.21875 C 1158.585938 289.21875 1190.273438 222.820312 1189.148438 221.695312 C 1187.882812 220.570312 1168.828125 213.117188 1168.546875 213.679688 C 1162.664062 224.929688 1150.03125 239.671875 1142.601562 244.007812 C 1132.101562 250.195312 1124.953125 249.070312 1096.921875 237.28125 C 1083.890625 231.65625 1071.5625 226.617188 1069.59375 225.773438 C 1066.359375 224.507812 1066.78125 224.085938 1077.304688 219.164062 C 1087.242188 214.523438 1164.046875 166.945312 1204.007812 140.8125 C 1218.445312 131.414062 1218.585938 131.132812 1222.640625 121.59375 C 1224.890625 116.25 1226.414062 111.328125 1226.273438 110.625 C 1225.992188 109.921875 1218.585938 106.429688 1209.75 103.054688 C 1200.914062 99.539062 1168.96875 87.046875 1138.96875 75.117188 C 1108.828125 63.1875 1083.609375 53.34375 1082.90625 53.34375 C 1082.0625 53.34375 1080.515625 55.453125 1079.53125 57.84375 Z M 1079.53125 57.84375 "/>
<path style=" stroke:none;fill-rule:nonzero;fill:rgb(0%,0%,0%);fill-opacity:1;" d="M 1288.664062 61.078125 C 1285.710938 64.453125 1285.007812 64.59375 1267.640625 64.734375 C 1252.921875 64.875 1250.53125 65.15625 1254.585938 66.257812 C 1257.257812 67.101562 1264.828125 69.351562 1271.414062 71.179688 C 1278 73.007812 1290.890625 76.804688 1300.148438 79.617188 C 1309.40625 82.265625 1319.484375 85.21875 1322.578125 85.921875 C 1330.289062 88.03125 1330.992188 89.015625 1327.898438 93.65625 C 1317.234375 108.960938 1321.59375 127.476562 1338.117188 137.742188 C 1348.21875 143.90625 1364.484375 140.390625 1373.039062 130.289062 C 1377.9375 124.382812 1381.992188 115.546875 1382.132812 110.484375 C 1382.132812 108.398438 1382.695312 106.710938 1383.398438 106.710938 C 1387.054688 106.710938 1445.625 131.414062 1464.140625 140.53125 C 1481.367188 149.25 1509.398438 166.382812 1522.570312 176.203125 C 1550.179688 196.992188 1575.28125 224.648438 1587.890625 248.507812 C 1597.007812 265.359375 1600.78125 275.601562 1606.523438 298.359375 C 1611.023438 315.609375 1611.28125 317.859375 1611.164062 340.476562 C 1611.164062 362.648438 1610.742188 365.601562 1606.664062 381.609375 C 1599.515625 409.265625 1588.171875 433.40625 1573.171875 452.929688 C 1558.03125 472.734375 1522.992188 506.976562 1500.28125 524.25 C 1489.21875 532.546875 1480.242188 539.554688 1480.242188 539.976562 C 1480.242188 540.257812 1481.648438 539.976562 1483.476562 539.273438 C 1485.164062 538.570312 1490.203125 537.726562 1494.679688 537.164062 C 1509.679688 535.617188 1522.007812 526.640625 1555.921875 492.796875 C 1602.328125 446.460938 1620.679688 415.3125 1629.796875 367.148438 C 1633.148438 349.453125 1633.007812 310.992188 1629.65625 295.125 C 1623.210938 264.9375 1607.085938 230.109375 1587.890625 204.984375 C 1586.484375 203.015625 1578.773438 194.882812 1570.921875 187.007812 C 1553.414062 169.03125 1523.835938 146.4375 1503.375 135.210938 C 1493.835938 130.007812 1438.476562 102.492188 1437.492188 102.492188 C 1437.070312 102.492188 1433.15625 100.945312 1428.960938 98.976562 C 1394.742188 83.25 1339.101562 65.71875 1304.625 59.671875 C 1290.609375 57.140625 1292.296875 57 1288.664062 61.078125 Z M 1324.664062 75.820312 C 1324.664062 76.523438 1323.984375 77.226562 1323.140625 77.226562 C 1322.4375 77.226562 1322.15625 76.523438 1322.578125 75.820312 C 1323 74.976562 1323.703125 74.414062 1324.101562 74.414062 C 1324.382812 74.414062 1324.664062 74.976562 1324.664062 75.820312 Z M 1384.242188 89.859375 C 1384.664062 90.5625 1384.101562 91.265625 1382.835938 91.265625 C 1381.570312 91.265625 1381.007812 90.5625 1381.429688 89.859375 C 1381.851562 89.015625 1382.554688 88.453125 1382.835938 88.453125 C 1383.117188 88.453125 1383.820312 89.015625 1384.242188 89.859375 Z M 1520.460938 165.960938 C 1520.0625 167.085938 1519.640625 166.664062 1519.640625 165.117188 C 1519.5 163.570312 1519.921875 162.726562 1520.320312 163.289062 C 1520.742188 163.710938 1520.882812 164.976562 1520.460938 165.960938 Z M 1520.460938 165.960938 "/>
<path style=" stroke:none;fill-rule:nonzero;fill:rgb(0%,0%,0%);fill-opacity:1;" d="M 1253.484375 152.765625 C 1249.546875 158.648438 1246.195312 163.992188 1246.195312 164.414062 C 1246.195312 164.976562 1250.953125 168.328125 1256.695312 171.984375 C 1262.4375 175.5 1267.21875 178.734375 1267.21875 179.15625 C 1267.21875 179.4375 1263.28125 184.898438 1258.382812 191.367188 C 1253.625 197.671875 1239.609375 217.195312 1227.398438 234.75 C 1202.039062 271.101562 1194.46875 279.398438 1186.335938 279.398438 C 1183.40625 279.257812 1179.46875 278.414062 1177.5 277.289062 C 1175.554688 276.164062 1173.304688 275.320312 1172.601562 275.179688 C 1171.054688 275.179688 1159.289062 292.03125 1159.289062 294.140625 C 1159.429688 295.6875 1236.65625 350.015625 1239.75 350.71875 C 1241.835938 351.140625 1256.414062 330.351562 1255.570312 328.125 C 1255.289062 327.140625 1250.8125 323.90625 1245.632812 320.953125 C 1240.007812 317.71875 1236.796875 314.90625 1237.359375 313.945312 C 1237.921875 313.101562 1242.820312 306.351562 1248.28125 299.0625 C 1253.625 291.75 1265.671875 274.757812 1274.929688 261.421875 C 1292.71875 235.734375 1297.617188 228.703125 1319.625 197.53125 C 1330.710938 181.96875 1333.078125 177.890625 1331.671875 176.203125 C 1328.601562 172.546875 1316.695312 165.679688 1313.320312 165.679688 C 1305.75 165.679688 1287.117188 157.382812 1268.742188 145.734375 C 1265.25 143.625 1262.15625 141.796875 1261.734375 141.796875 C 1261.171875 141.796875 1257.539062 146.71875 1253.484375 152.765625 Z M 1253.484375 152.765625 "/>
<path style=" stroke:none;fill-rule:nonzero;fill:rgb(0%,0%,0%);fill-opacity:1;" d="M 1362.796875 225.632812 C 1357.335938 230.109375 1352.835938 234.1875 1352.835938 234.609375 C 1352.695312 235.171875 1356.492188 239.8125 1361.109375 244.851562 C 1365.75 250.054688 1369.523438 254.695312 1369.382812 255.257812 C 1369.382812 255.820312 1363.921875 260.4375 1357.195312 265.5 C 1350.46875 270.679688 1327.335938 289.78125 1305.75 308.179688 C 1284.164062 326.4375 1261.453125 345.65625 1255.429688 350.71875 C 1249.40625 355.921875 1238.34375 365.320312 1230.914062 371.789062 C 1211.4375 388.476562 1203.585938 393.398438 1195.453125 394.242188 C 1189.429688 394.804688 1188.023438 394.382812 1183.265625 390.585938 L 1177.921875 386.390625 L 1169.390625 393.398438 C 1164.609375 397.335938 1160.695312 400.992188 1160.695312 401.695312 C 1160.695312 403.078125 1221.515625 475.265625 1223.90625 476.789062 C 1225.171875 477.492188 1228.382812 475.125 1241.695312 463.734375 L 1246.476562 459.820312 L 1238.203125 450.820312 L 1230.070312 441.84375 L 1234.828125 438.1875 C 1237.359375 436.21875 1249.40625 426.117188 1261.59375 415.875 C 1273.804688 405.75 1284.164062 397.335938 1284.445312 397.335938 C 1284.867188 397.335938 1287.820312 402.796875 1291.03125 409.40625 C 1302.257812 432.5625 1326.914062 452.507812 1351.453125 458.414062 C 1389.140625 467.25 1436.226562 448.007812 1464.820312 411.9375 C 1479.960938 392.835938 1487.25 374.296875 1487.25 354.375 C 1487.25 340.195312 1483.617188 328.40625 1475.203125 315.609375 C 1464.257812 299.203125 1449.421875 289.21875 1427.132812 283.617188 L 1420.96875 281.929688 L 1427.414062 275.460938 L 1433.71875 268.875 L 1427.273438 261.703125 C 1423.335938 257.484375 1417.3125 252.867188 1412.273438 250.476562 C 1406.671875 247.664062 1399.242188 241.898438 1389.140625 232.078125 C 1381.007812 224.085938 1374 217.617188 1373.4375 217.617188 C 1373.039062 217.617188 1368.117188 221.273438 1362.796875 225.632812 Z M 1414.804688 304.101562 C 1423.195312 306.914062 1433.015625 315.75 1436.109375 323.203125 C 1443.117188 340.476562 1435.265625 361.804688 1414.101562 383.296875 C 1381.570312 416.15625 1347.9375 426.820312 1327.335938 410.953125 C 1324.101562 408.5625 1319.625 404.203125 1317.375 401.414062 C 1312.476562 395.367188 1306.3125 380.625 1307.578125 378.234375 C 1308.5625 376.546875 1315.148438 370.804688 1339.523438 350.296875 C 1344.867188 345.65625 1359.984375 332.882812 1372.898438 321.796875 C 1395.023438 302.976562 1396.570312 301.851562 1402.3125 301.851562 C 1405.546875 301.851562 1411.148438 302.835938 1414.804688 304.101562 Z M 1414.804688 304.101562 "/>
<path style=" stroke:none;fill-rule:nonzero;fill:rgb(0%,0%,0%);fill-opacity:1;" d="M 1040.4375 334.148438 C 1019.835938 336.960938 1001.742188 345.234375 983.109375 360.117188 C 947.507812 388.617188 928.3125 428.789062 935.179688 460.523438 C 936.585938 466.828125 936.304688 468.515625 933.210938 476.367188 C 931.40625 481.148438 929.015625 488.460938 927.890625 492.375 C 926.90625 496.453125 925.78125 499.828125 925.359375 499.828125 C 924.9375 499.828125 922.710938 494.765625 920.601562 488.742188 C 908.273438 453.773438 886.828125 422.601562 864.117188 406.3125 C 853.617188 398.742188 835.242188 390.023438 822.914062 386.671875 C 808.757812 382.734375 781.851562 383.015625 768.257812 387.375 C 755.929688 391.148438 745.6875 396.210938 738.539062 401.835938 C 731.8125 407.015625 731.671875 410.671875 737.554688 425.132812 C 753.960938 466.265625 784.640625 499.40625 821.367188 515.273438 C 842.25 524.390625 855.140625 526.921875 884.578125 527.765625 L 910.5 528.609375 L 913.59375 534.914062 C 918.351562 544.757812 919.195312 551.34375 918.070312 567.351562 C 917.53125 575.367188 916.96875 604.710938 916.96875 632.648438 L 916.828125 683.320312 L 920.039062 686.273438 C 923.695312 689.648438 930.28125 690.210938 933.773438 687.539062 C 935.882812 685.992188 936.164062 678.84375 936.867188 624.070312 C 937.289062 580.828125 938.273438 555.703125 939.796875 540.539062 C 943.3125 508.523438 947.648438 489.164062 952.007812 487.054688 C 953.109375 486.492188 961.804688 484.804688 971.34375 483.117188 C 991.804688 479.601562 1018.992188 471.046875 1036.921875 462.46875 C 1083.609375 440.15625 1109.953125 404.203125 1110.65625 361.523438 C 1110.9375 346.078125 1110.515625 345.375 1098.328125 341.039062 C 1081.359375 335.132812 1056.140625 332.039062 1040.4375 334.148438 Z M 1080.796875 356.34375 L 1089.914062 358.710938 L 1089.773438 367.851562 C 1089.492188 398.039062 1064.953125 428.789062 1026.984375 446.460938 C 1005.539062 456.585938 961.664062 468.234375 961.664062 464.015625 C 961.664062 463.59375 963.773438 459.960938 966.445312 455.882812 C 977.929688 438.046875 1001.484375 415.875 1025.4375 400.429688 C 1033.148438 395.367188 1040.296875 390.304688 1041.28125 389.179688 C 1046.179688 383.015625 1039.453125 372.210938 1031.882812 374.15625 C 1026.5625 375.5625 1003.289062 391.289062 988.851562 403.21875 C 981.984375 408.984375 971.484375 418.945312 965.882812 425.273438 C 960.117188 431.578125 955.21875 436.21875 954.9375 435.515625 C 954.65625 434.671875 955.921875 430.195312 957.46875 425.273438 C 966.984375 397.195312 999.234375 366.023438 1028.953125 356.484375 C 1039.171875 353.109375 1067.765625 353.109375 1080.796875 356.34375 Z M 823.617188 407.15625 C 845.203125 413.90625 861.867188 425.976562 876.445312 445.359375 C 884.71875 456.164062 896.367188 476.507812 895.523438 478.757812 C 895.242188 479.460938 891.023438 476.507812 885.984375 472.3125 C 868.335938 457.148438 825.726562 431.039062 818.859375 431.039062 C 815.0625 431.039062 808.898438 436.359375 808.898438 439.59375 C 808.898438 445.078125 811.851562 447.867188 823.195312 453.632812 C 845.90625 465 874.78125 485.648438 887.953125 499.828125 C 894.960938 507.257812 894.960938 507.257812 891.445312 508.523438 C 887.390625 510.070312 862.710938 507.820312 848.835938 504.46875 C 836.367188 501.515625 820.242188 494.765625 809.742188 488.039062 C 790.546875 475.523438 769.664062 451.101562 759.984375 429.492188 C 753.117188 414.1875 753.117188 414.75 761.25 410.671875 C 772.875 404.765625 782.695312 402.9375 799.078125 403.5 C 809.039062 403.921875 817.03125 405.046875 823.617188 407.15625 Z M 823.617188 407.15625 "/>
<path style=" stroke:none;fill-rule:nonzero;fill:rgb(0%,0%,0%);fill-opacity:1;" d="M 272.671875 495.1875 C 268.59375 496.03125 266.34375 506.976562 268.59375 514.710938 C 271.546875 524.671875 281.90625 545.320312 290.039062 557.390625 C 308.109375 584.203125 340.5 612 382.96875 637.125 C 403.289062 649.21875 433.429688 662.132812 436.5 660.304688 C 437.34375 659.882812 437.484375 660.164062 437.0625 660.867188 C 436.5 661.710938 437.34375 662.695312 438.890625 663.117188 C 443.507812 664.382812 443.367188 661.710938 438.609375 656.789062 C 429.492188 647.53125 428.507812 646.125 430.335938 643.875 C 432.445312 641.34375 440.4375 642.609375 458.507812 648.234375 C 463.40625 649.921875 449.953125 642.328125 441 638.390625 C 417.585938 628.570312 397.828125 618.75 382.828125 609.46875 C 373.992188 604.007812 364.171875 598.382812 361.101562 596.835938 C 358.007812 595.429688 350.4375 590.25 344.273438 585.46875 C 319.195312 565.664062 297.890625 538.992188 283.03125 508.523438 C 279.117188 500.671875 275.882812 494.34375 275.742188 494.34375 C 275.742188 494.484375 274.195312 494.90625 272.671875 495.1875 Z M 272.671875 495.1875 "/>
</g>
</svg>
