<?xml version="1.0" standalone="no"?>
<!DOCTYPE svg PUBLIC "-//W3C//DTD SVG 20010904//EN"
 "http://www.w3.org/TR/2001/REC-SVG-20010904/DTD/svg10.dtd">
<svg version="1.0" xmlns="http://www.w3.org/2000/svg"
 width="229.000000pt" height="39.000000pt" viewBox="0 0 229.000000 39.000000"
 preserveAspectRatio="xMidYMid meet">

<g transform="translate(0.000000,39.000000) scale(0.100000,-0.100000)"
fill="#000000" stroke="none">
<path d="M0 195 l0 -195 348 0 c240 1 342 4 330 11 -29 16 -23 63 12 92 17 14
26 29 20 32 -16 10 -12 78 6 104 21 30 73 51 124 51 35 0 41 -3 36 -17 -2 -10
-15 -67 -27 -127 -14 -69 -29 -116 -41 -128 -17 -17 -6 -18 380 -18 l397 0 27
128 c22 108 24 128 12 135 -29 17 -1 26 76 26 88 0 104 -9 102 -60 -1 -49 -60
-99 -116 -99 -21 0 -26 -6 -35 -47 -8 -39 -7 -49 5 -56 8 -5 12 -12 9 -18 -4
-5 115 -9 309 -9 l316 0 0 195 0 195 -360 0 c-283 0 -361 -3 -359 -12 4 -30
-2 -39 -23 -36 -17 2 -23 9 -22 26 l1 22 -449 0 -448 0 0 -116 c0 -100 3 -119
18 -130 15 -12 8 -13 -48 -13 -56 0 -63 1 -47 13 10 8 17 26 17 45 0 28 -3 31
-30 31 -23 0 -35 -7 -50 -32 -14 -24 -16 -35 -8 -45 8 -10 1 -13 -38 -13 l-49
1 28 20 c15 12 61 70 101 130 l74 109 -299 0 -299 0 0 -195z m993 78 c-6 -17
-5 -17 14 0 36 32 68 20 51 -19 -12 -26 -23 -30 -33 -14 -10 17 -32 -6 -45
-46 -11 -31 -10 -37 7 -49 16 -13 12 -14 -42 -14 -51 0 -58 2 -43 13 9 7 22
34 28 61 9 41 9 50 -5 57 -25 14 -7 28 35 28 33 0 38 -3 33 -17z m242 -7 c22
-33 11 -69 -31 -106 -61 -53 -138 -35 -136 31 2 78 128 135 167 75z m197 -3
c-11 -16 -39 -46 -61 -68 -23 -21 -41 -43 -41 -47 0 -14 45 -9 68 8 26 18 35
15 26 -10 -5 -13 -21 -16 -85 -16 -43 0 -79 3 -79 8 0 4 27 38 61 75 55 60 58
67 37 67 -13 0 -33 -7 -44 -15 -26 -20 -33 -19 -27 5 5 18 14 20 85 20 l79 0
-19 -27z m133 5 c-24 -106 -24 -112 -7 -125 14 -10 8 -12 -43 -12 -51 0 -57 2
-43 12 9 8 22 35 29 61 11 43 10 50 -5 58 -26 14 -9 28 35 28 36 0 39 -2 34
-22z"/>
<path d="M1146 257 c-19 -19 -26 -36 -26 -66 0 -22 4 -42 9 -45 16 -10 39 5
49 32 20 53 22 68 8 87 -13 18 -14 18 -40 -8z"/>
<path d="M548 275 c-23 -30 -22 -35 2 -35 16 0 20 7 20 30 0 36 0 36 -22 5z"/>
<path d="M793 269 c-27 -10 -43 -39 -43 -77 0 -35 23 -48 44 -26 14 13 33 100
25 108 -2 2 -14 0 -26 -5z"/>
<path d="M1701 261 c-7 -5 -19 -34 -26 -65 l-13 -56 26 6 c52 12 82 80 50 112
-14 14 -19 15 -37 3z"/>
<path d="M749 117 c-41 -28 -53 -79 -21 -96 29 -15 48 6 59 67 6 28 7 52 3 52
-4 0 -22 -10 -41 -23z"/>
</g>
</svg>
