<?xml version="1.0" standalone="no"?>
<!DOCTYPE svg PUBLIC "-//W3C//DTD SVG 20010904//EN"
 "http://www.w3.org/TR/2001/REC-SVG-20010904/DTD/svg10.dtd">
<svg version="1.0" xmlns="http://www.w3.org/2000/svg"
 width="1280.000000pt" height="500.000000pt" viewBox="0 0 1280.000000 500.000000"
 preserveAspectRatio="xMidYMid meet">

<g transform="translate(0.000000,500.000000) scale(0.100000,-0.100000)"
fill="#000000" stroke="none">
<path d="M4660 4989 c-357 -6 -449 -10 -502 -25 -16 -5 -15 -8 3 -41 11 -20
18 -42 14 -51 -3 -8 0 -21 6 -28 12 -15 4 -34 -15 -34 -7 0 -26 -19 -41 -42
-15 -24 -44 -63 -64 -87 -20 -24 -52 -74 -71 -110 -29 -53 -41 -66 -67 -73
-29 -8 -33 -12 -30 -41 2 -29 -3 -35 -60 -72 -60 -39 -93 -58 -233 -136 -362
-201 -821 -549 -1116 -846 -74 -75 -119 -113 -133 -113 -12 0 -43 9 -69 20
-52 21 -205 77 -298 108 -49 17 -69 19 -98 11 -20 -5 -36 -13 -36 -17 0 -4
-18 -28 -40 -52 -22 -24 -40 -53 -40 -63 0 -10 54 -118 120 -239 66 -122 120
-231 120 -242 0 -12 -9 -50 -21 -86 -42 -133 -42 -129 -25 -155 9 -14 19 -25
21 -25 3 0 23 38 46 85 22 47 43 85 47 85 8 0 22 -25 295 -525 222 -407 238
-441 245 -526 3 -53 0 -73 -16 -106 l-21 -40 66 -57 c55 -48 68 -55 81 -44 29
25 362 407 362 417 0 9 -133 133 -148 139 -4 1 -32 -29 -62 -68 -30 -38 -58
-70 -63 -70 -4 0 -13 12 -19 28 -7 15 -45 87 -86 160 -40 74 -71 139 -69 145
7 16 261 317 339 402 15 17 28 33 28 38 0 16 43 5 145 -37 131 -55 175 -92
175 -148 0 -22 -7 -53 -16 -70 l-16 -32 58 -52 c33 -29 64 -53 69 -54 9 0 97
98 329 363 63 72 71 78 95 70 14 -4 56 -8 93 -7 l67 1 -30 -44 c-62 -90 -85
-179 -68 -262 28 -139 127 -224 284 -245 171 -24 523 142 728 342 90 89 177
218 206 310 55 170 -11 354 -157 439 l-47 28 75 18 c41 9 127 29 190 42 287
62 372 83 380 91 8 8 -24 181 -35 193 -3 2 -42 -6 -86 -18 -45 -12 -83 -20
-84 -19 -1 2 -7 39 -14 82 -7 44 -31 161 -53 260 -68 306 -70 320 -66 368 13
129 166 328 203 262 43 -77 123 -114 207 -94 110 27 166 124 138 241 -18 75
-86 143 -157 158 -97 20 -202 -14 -292 -95 -48 -43 -121 -146 -135 -191 -4
-11 -13 -26 -20 -32 -10 -9 -18 10 -40 91 -14 56 -30 106 -34 110 -15 15 -116
-14 -155 -44 -69 -53 -181 -101 -324 -138 -24 -6 -43 -16 -42 -23 1 -40 37
-171 47 -175 11 -3 132 21 164 33 11 4 18 -18 32 -102 10 -60 42 -215 71 -345
72 -322 80 -373 63 -423 -10 -32 -22 -45 -61 -65 -53 -27 -52 -20 -31 -134 l7
-39 -40 6 c-102 17 -298 -39 -561 -159 -204 -93 -233 -104 -286 -104 -52 0
-66 13 -66 61 0 54 38 87 183 161 104 53 134 74 203 143 171 170 233 393 162
582 -49 133 -154 238 -283 284 -73 27 -76 32 -78 121 -2 80 11 90 105 81 61
-5 71 -3 106 19 20 14 46 42 57 62 11 20 25 36 31 36 6 0 31 10 55 23 24 13
78 34 119 46 41 13 82 29 90 36 8 7 42 22 75 33 33 11 105 36 160 56 55 19
110 35 121 36 12 0 27 7 34 15 7 8 21 15 32 15 11 0 66 14 122 31 55 17 137
41 181 54 44 14 132 40 195 58 63 19 134 40 158 46 23 7 42 16 42 20 0 10
-557 10 -1130 0z m-247 -126 c33 -17 33 -18 1 -40 -28 -18 -83 -19 -146 -2
-37 9 -53 29 -24 29 8 0 16 6 19 14 11 28 95 27 150 -1z m-443 -587 c0 -33 0
-33 -57 -40 -31 -4 -69 -9 -83 -13 -35 -8 -18 8 55 50 77 45 85 45 85 3z
m-470 -234 c0 -5 -9 -17 -21 -28 -41 -37 -108 -151 -133 -226 -34 -100 -36
-235 -6 -323 64 -187 231 -314 413 -315 l48 0 -42 -62 c-50 -74 -69 -131 -69
-211 0 -41 -5 -66 -16 -78 -15 -17 -20 -15 -102 26 -48 23 -170 73 -272 110
-102 36 -252 91 -335 122 -158 58 -214 78 -385 139 -58 20 -108 40 -113 44 -7
6 157 174 223 226 19 16 69 58 110 94 99 88 341 269 447 336 47 30 92 59 100
66 20 16 136 86 146 87 4 1 7 -3 7 -7z m414 -53 c86 -40 200 -178 242 -290 22
-60 23 -194 2 -234 -18 -34 -62 -77 -95 -94 -34 -17 -123 -13 -171 9 -119 54
-250 249 -260 388 -7 108 29 190 100 225 46 23 129 21 182 -4z m-1616 -1073
c37 -19 172 -75 300 -126 l233 -92 -18 -22 c-10 -11 -36 -41 -58 -66 -22 -25
-69 -79 -105 -120 -36 -41 -77 -88 -92 -105 -14 -16 -28 -28 -31 -25 -2 3 -50
86 -107 185 -56 99 -129 222 -161 273 -48 77 -57 97 -49 113 6 10 13 19 16 19
2 0 35 -15 72 -34z m2540 -40 c38 -20 67 -84 59 -132 -34 -207 -350 -411 -572
-370 -44 9 -111 66 -130 112 -30 72 -27 177 5 195 8 5 98 47 199 95 258 120
356 143 439 100z"/>
<path d="M6522 4819 c-232 -30 -427 -179 -532 -404 -52 -111 -71 -191 -77
-330 -5 -102 -2 -134 16 -205 52 -208 172 -359 353 -445 99 -47 175 -65 293
-72 375 -21 655 229 715 638 15 102 9 248 -15 334 -39 147 -142 291 -262 371
-132 88 -334 134 -491 113z m208 -213 c100 -49 160 -226 160 -474 0 -129 -12
-226 -42 -327 -52 -180 -123 -249 -252 -246 -187 4 -276 167 -276 505 0 171
23 296 73 400 51 103 90 142 165 162 58 15 113 9 172 -20z"/>
<path d="M7681 4588 c-8 -18 -57 -120 -108 -226 -51 -107 -93 -200 -93 -206 0
-11 120 -66 142 -66 3 0 18 20 32 44 73 124 168 206 240 206 33 0 300 -92 370
-127 l29 -15 -84 -45 c-46 -24 -127 -70 -179 -102 -52 -32 -252 -154 -445
-271 -192 -117 -357 -220 -366 -229 -23 -23 -82 -172 -72 -182 4 -4 175 -73
378 -152 204 -80 445 -175 536 -211 91 -36 168 -66 172 -66 12 0 238 473 230
481 -9 8 -145 61 -147 57 -42 -80 -132 -185 -185 -216 -75 -44 -126 -36 -326
48 -93 40 -181 76 -195 82 -23 9 -20 12 55 47 71 33 619 372 904 558 103 67
104 69 133 137 16 38 27 73 26 78 -2 5 -55 30 -118 54 -63 25 -291 114 -505
199 -215 85 -395 155 -400 155 -6 0 -17 -15 -24 -32z"/>
<path d="M9173 4565 c-21 -24 -26 -25 -150 -26 -105 -1 -122 -3 -93 -11 19 -6
73 -22 120 -35 47 -13 139 -40 205 -60 66 -19 138 -40 160 -45 55 -15 60 -22
38 -55 -76 -109 -45 -241 73 -314 72 -44 188 -19 249 53 35 42 64 105 65 141
0 15 4 27 9 27 26 0 444 -176 576 -241 123 -62 323 -184 417 -254 197 -148
376 -345 466 -515 65 -120 92 -193 133 -355 32 -123 34 -139 33 -300 0 -158
-3 -179 -32 -293 -51 -197 -132 -369 -239 -508 -108 -141 -358 -385 -520 -508
-79 -59 -143 -109 -143 -112 0 -2 10 0 23 5 12 5 48 11 80 15 107 11 195 75
437 316 331 330 462 552 527 895 24 126 23 400 -1 513 -46 215 -161 463 -298
642 -10 14 -65 72 -121 128 -125 128 -336 289 -482 369 -68 37 -463 233 -470
233 -3 0 -31 11 -61 25 -244 112 -641 237 -887 280 -100 18 -88 19 -114 -10z
m257 -105 c0 -5 -5 -10 -11 -10 -5 0 -7 5 -4 10 3 6 8 10 11 10 2 0 4 -4 4
-10z m425 -100 c3 -5 -1 -10 -10 -10 -9 0 -13 5 -10 10 3 6 8 10 10 10 2 0 7
-4 10 -10z m972 -542 c-3 -8 -6 -5 -6 6 -1 11 2 17 5 13 3 -3 4 -12 1 -19z"/>
<path d="M8922 3912 c-28 -42 -52 -80 -52 -83 0 -4 34 -28 75 -54 41 -25 75
-48 75 -51 0 -2 -28 -41 -63 -87 -34 -45 -134 -184 -221 -309 -181 -259 -235
-318 -293 -318 -21 1 -49 7 -63 15 -14 8 -30 14 -35 15 -11 0 -95 -120 -95
-135 1 -11 552 -398 574 -403 15 -3 119 145 113 161 -2 7 -34 30 -71 51 -40
23 -63 43 -59 50 4 6 39 54 78 106 38 52 124 173 190 268 127 183 162 233 319
455 79 111 96 140 86 152 -22 26 -107 75 -131 75 -54 0 -187 59 -318 142 -25
15 -47 28 -50 28 -4 0 -30 -35 -59 -78z"/>
<path d="M9702 3393 c-39 -32 -71 -61 -71 -64 -1 -4 26 -37 59 -73 33 -37 60
-70 59 -74 0 -4 -39 -37 -87 -73 -48 -37 -213 -173 -367 -304 -154 -130 -316
-267 -359 -303 -43 -37 -122 -104 -175 -150 -139 -119 -195 -154 -253 -160
-43 -4 -53 -1 -87 26 l-38 30 -61 -50 c-34 -28 -62 -54 -62 -59 0 -10 434
-524 451 -535 9 -5 32 12 127 93 l34 28 -59 64 -58 64 34 26 c18 14 104 86
191 159 87 72 161 132 163 132 3 0 24 -39 47 -86 80 -165 256 -307 431 -349
269 -63 605 74 809 331 108 136 160 268 160 410 0 101 -26 185 -86 276 -78
117 -184 188 -343 228 l-44 12 46 46 45 47 -46 51 c-28 30 -71 63 -107 80 -40
20 -93 61 -165 131 -58 57 -108 103 -112 103 -3 0 -38 -26 -76 -57z m371 -559
c60 -20 130 -83 152 -136 50 -123 -6 -275 -157 -428 -232 -234 -472 -310 -619
-197 -23 17 -55 48 -71 68 -35 43 -79 148 -70 165 7 12 54 53 228 199 38 33
146 124 238 203 158 134 169 142 210 142 23 0 63 -7 89 -16z"/>
<path d="M7402 2620 c-147 -20 -276 -79 -409 -185 -254 -203 -391 -489 -342
-715 10 -45 8 -57 -14 -113 -13 -34 -30 -86 -38 -114 -7 -29 -15 -53 -18 -53
-3 0 -19 36 -34 79 -88 249 -241 471 -403 587 -75 54 -206 116 -294 140 -101
28 -293 26 -390 -5 -88 -27 -161 -63 -212 -103 -48 -37 -49 -63 -7 -166 117
-293 336 -529 598 -642 149 -65 241 -83 451 -89 l185 -6 22 -45 c34 -70 40
-117 32 -231 -4 -57 -8 -266 -8 -465 l-1 -361 23 -21 c26 -24 73 -28 98 -9 15
11 17 62 22 452 3 308 10 487 21 595 25 228 56 366 87 381 8 4 70 16 138 28
146 25 340 86 468 147 333 159 521 415 526 719 2 110 -1 115 -88 146 -121 42
-301 64 -413 49z m288 -158 l65 -17 -1 -65 c-2 -215 -177 -434 -448 -560 -153
-72 -466 -155 -466 -125 0 3 15 29 34 58 82 127 250 285 421 395 55 36 106 72
113 80 35 44 -13 121 -67 107 -38 -10 -204 -122 -307 -207 -49 -41 -124 -112
-164 -157 -41 -45 -76 -78 -78 -73 -2 6 7 38 18 73 68 200 298 422 510 490 73
24 277 24 370 1z m-1835 -362 c154 -48 273 -134 377 -272 59 -77 142 -222 136
-238 -2 -5 -32 16 -68 46 -126 108 -430 294 -479 294 -27 0 -71 -38 -71 -61 0
-39 21 -59 102 -100 162 -81 368 -228 462 -329 50 -53 50 -53 25 -62 -29 -11
-205 5 -304 29 -89 21 -204 69 -279 117 -137 89 -286 263 -355 417 -49 109
-49 105 9 134 83 42 153 55 270 51 71 -3 128 -11 175 -26z"/>
<path d="M1924 1473 c-29 -6 -45 -84 -29 -139 21 -71 95 -218 153 -304 129
-191 360 -389 663 -568 145 -86 360 -178 382 -165 6 3 7 1 4 -4 -4 -6 2 -13
13 -16 33 -9 32 10 -2 45 -65 66 -72 76 -59 92 15 18 72 9 201 -31 35 -12 -61
42 -125 70 -167 70 -308 140 -415 206 -63 39 -133 79 -155 90 -22 10 -76 47
-120 81 -179 141 -331 331 -437 548 -28 56 -51 101 -52 101 0 -1 -11 -4 -22
-6z"/>
</g>
</svg>
