<?xml version="1.0" standalone="no"?>
<!DOCTYPE svg PUBLIC "-//W3C//DTD SVG 20010904//EN"
 "http://www.w3.org/TR/2001/REC-SVG-20010904/DTD/svg10.dtd">
<svg version="1.0" xmlns="http://www.w3.org/2000/svg"
 width="1000.000000pt" height="1000.000000pt" viewBox="0 0 1000.000000 1000.000000"
 preserveAspectRatio="xMidYMid meet">

<g transform="translate(0.000000,1000.000000) scale(0.100000,-0.100000)"
fill="#000000" stroke="none">
<path d="M3870 9827 l-74 -22 -28 -110 c-16 -60 -44 -173 -64 -250 -20 -77
-63 -241 -96 -365 -34 -124 -69 -259 -78 -300 -10 -41 -49 -190 -88 -330 -57
-205 -74 -279 -82 -375 -6 -66 -19 -145 -27 -175 -9 -30 -16 -58 -15 -62 1 -4
-22 -31 -51 -60 -31 -32 -51 -60 -49 -71 3 -14 7 -15 25 -5 12 6 24 14 27 18
3 3 75 41 160 83 178 89 204 106 195 129 -5 14 -16 16 -54 11 -60 -7 -108 15
-118 55 -12 47 -8 162 12 312 10 80 18 153 19 162 0 11 17 23 46 33 25 9 59
22 75 30 17 7 59 23 95 36 36 12 73 26 83 31 10 5 26 11 35 13 9 2 32 10 49
17 34 13 52 6 57 -23 4 -26 57 -194 65 -209 8 -15 13 -35 26 -100 10 -47 7
-118 -6 -141 -14 -28 -57 -67 -81 -75 -20 -6 -22 -13 -10 -31 6 -9 69 4 247
53 132 35 247 66 255 69 8 2 29 8 45 13 17 5 31 15 33 23 2 12 -10 15 -53 15
-49 0 -60 4 -87 31 -34 34 -65 110 -84 203 -3 14 -12 52 -21 85 -8 33 -17 71
-19 85 -3 14 -9 41 -14 60 -5 19 -12 51 -15 70 -3 19 -10 49 -15 65 -5 17 -12
42 -15 58 -13 68 -17 84 -27 122 -5 22 -11 47 -13 55 -19 95 -39 184 -50 225
-14 48 -17 64 -30 150 -3 22 -10 54 -15 70 -5 17 -11 43 -14 59 -9 53 -28 141
-34 156 -3 8 -7 24 -9 35 -9 48 -24 95 -31 94 -4 0 -41 -10 -82 -22z m-141
-627 c13 -41 26 -84 31 -95 9 -20 23 -65 25 -75 0 -3 8 -25 17 -50 9 -25 22
-65 29 -90 16 -58 18 -62 39 -117 11 -26 1 -34 -60 -53 -25 -7 -49 -16 -55
-20 -5 -4 -30 -13 -55 -20 -25 -8 -55 -20 -67 -28 -13 -8 -23 -11 -23 -8 0 4
-13 0 -30 -9 -16 -9 -30 -13 -30 -10 0 3 -9 1 -20 -5 -25 -13 -25 -14 5 98 14
51 27 107 30 123 7 41 114 430 122 441 9 16 20 -4 42 -82z"/>
<path d="M5439 9276 c-2 -3 -29 -7 -59 -9 -46 -5 -108 -19 -225 -55 -48 -14
-165 -91 -212 -140 -142 -146 -213 -323 -200 -501 6 -76 8 -88 21 -126 35 -99
111 -181 178 -191 21 -4 38 -12 38 -18 0 -7 -18 -25 -41 -42 -74 -53 -154
-118 -170 -139 -10 -11 -29 -33 -44 -50 -14 -16 -41 -59 -58 -95 -28 -59 -31
-74 -31 -165 0 -97 1 -102 36 -160 20 -33 47 -70 60 -82 29 -27 127 -73 170
-79 41 -6 136 -6 163 0 98 22 141 43 201 98 59 55 84 101 138 258 57 169 109
317 124 353 7 16 12 31 12 34 0 7 67 197 80 228 5 11 21 56 35 100 15 44 31
89 36 100 5 11 13 34 18 50 5 17 35 102 66 190 31 88 68 194 82 235 14 41 31
86 38 100 7 14 15 37 19 52 6 25 3 28 -26 32 -18 3 -49 8 -68 12 -41 6 -375
15 -381 10z m77 -82 c63 -7 93 -25 78 -45 -6 -8 -23 -59 -38 -114 -15 -55 -34
-116 -42 -135 -8 -19 -25 -73 -39 -120 -88 -309 -88 -309 -136 -347 -104 -84
-193 -103 -259 -56 -159 115 -139 492 38 681 39 42 192 142 192 126 0 -3 7 -1
16 4 21 11 122 15 190 6z m-176 -886 c-6 -29 -19 -84 -27 -123 -8 -38 -21 -95
-29 -125 -7 -30 -15 -66 -18 -80 -2 -14 -12 -56 -21 -95 -16 -67 -29 -125 -55
-245 -17 -76 -23 -84 -76 -114 -89 -50 -137 -32 -236 83 -22 25 -51 81 -42 81
4 0 0 7 -7 16 -9 11 -13 52 -14 138 0 112 2 125 28 177 40 83 107 138 300 245
95 53 176 100 182 105 20 19 27 -10 15 -63z"/>
<path d="M6192 9103 c2 -10 21 -26 42 -36 78 -37 113 -99 93 -166 -6 -20 -14
-38 -17 -41 -3 -3 -26 -46 -51 -95 -25 -50 -65 -126 -89 -170 -24 -44 -59
-111 -79 -150 -41 -78 -99 -168 -130 -202 -21 -22 -77 -43 -117 -43 -12 0 -24
-6 -27 -14 -6 -16 11 -24 133 -60 82 -24 132 -40 288 -90 62 -21 73 -22 81 -9
5 10 -2 26 -26 50 -43 47 -58 102 -43 161 12 48 69 164 98 197 9 11 24 31 33
45 27 41 92 113 138 153 92 81 198 111 255 74 24 -16 76 -93 80 -119 1 -7 5
-14 9 -16 8 -3 74 32 209 110 l67 38 -24 43 c-41 71 -102 125 -149 132 -22 4
-52 4 -66 1 -14 -3 -36 -7 -50 -10 -67 -14 -263 -134 -323 -198 -19 -19 -44
-19 -40 0 1 6 26 45 55 86 188 270 178 248 108 260 -19 3 -71 12 -115 20 -44
8 -107 20 -140 26 -53 9 -86 16 -183 36 -19 4 -23 1 -20 -13z"/>
<path d="M7398 8475 c-2 -1 -31 -5 -64 -8 -81 -8 -156 -35 -257 -93 -83 -48
-189 -144 -202 -183 -3 -11 -10 -21 -14 -21 -11 0 -57 -105 -72 -163 -17 -70
-6 -184 24 -251 45 -98 141 -172 272 -209 63 -18 197 -21 295 -7 41 5 91 13
111 15 43 7 188 52 203 64 6 4 23 11 38 15 15 3 39 17 54 31 15 14 30 25 33
25 10 0 102 82 128 113 40 50 75 168 66 228 -13 95 -19 115 -55 177 -29 51
-93 122 -110 122 -4 0 -13 7 -22 15 -28 29 -142 83 -218 104 -63 18 -200 35
-210 26z m302 -134 c51 -26 70 -45 99 -96 32 -56 30 -114 -6 -194 -27 -59
-112 -146 -248 -254 -39 -31 -161 -102 -222 -128 -127 -56 -210 -62 -289 -22
-62 31 -74 54 -76 138 -1 83 21 136 114 267 35 50 154 165 188 183 16 8 30 19
30 24 0 12 136 79 195 96 67 19 164 13 215 -14z"/>
<path d="M8384 7690 c-5 -5 -54 -32 -108 -59 -111 -56 -111 -65 4 -67 117 -2
191 -45 254 -146 11 -19 35 -56 51 -80 32 -48 75 -117 112 -177 12 -20 19 -39
15 -42 -4 -4 -58 -1 -121 7 -62 7 -163 18 -225 24 -61 5 -120 12 -131 14 -11
2 -56 7 -100 10 -44 4 -96 9 -115 11 -97 12 -140 16 -195 21 -33 2 -76 6 -95
9 -19 2 -60 7 -90 10 -30 4 -68 8 -83 9 -19 2 -37 -4 -53 -19 l-25 -23 43 -62
c24 -34 52 -77 63 -94 11 -18 27 -39 35 -48 8 -8 24 -31 35 -51 11 -20 23 -37
27 -37 4 0 17 -17 28 -37 11 -21 40 -65 65 -98 24 -33 53 -77 65 -97 11 -21
24 -38 28 -38 4 0 18 -20 31 -44 40 -73 38 -73 246 -13 72 21 73 37 3 37 -119
0 -203 48 -271 155 -15 22 -58 86 -96 142 -38 57 -67 105 -63 107 4 2 50 -4
102 -15 52 -11 131 -26 175 -33 44 -8 125 -24 180 -36 89 -18 191 -39 265 -53
14 -3 72 -14 130 -26 58 -12 116 -23 130 -25 14 -2 60 -11 103 -20 62 -14 85
-15 113 -6 l34 12 -18 26 c-10 15 -40 65 -67 112 -27 47 -54 90 -60 95 -6 6
-37 56 -69 112 -31 56 -61 105 -66 108 -5 3 -35 51 -66 105 -31 55 -60 103
-65 105 -4 3 -36 55 -70 115 -35 61 -66 110 -69 110 -3 0 -10 -4 -16 -10z"/>
<path d="M9026 6483 c16 -51 10 -140 -12 -164 -21 -23 -46 -38 -75 -45 -10 -2
-27 -6 -36 -8 -10 -2 -45 -7 -78 -11 -32 -3 -62 -8 -65 -10 -4 -3 -86 -13
-160 -20 -33 -3 -130 -16 -155 -21 -11 -2 -63 -7 -115 -10 -85 -6 -102 -4
-144 15 -27 11 -59 32 -72 46 -13 14 -30 25 -39 25 -13 0 -15 -6 -10 -32 4
-18 11 -37 15 -43 6 -8 20 -52 24 -75 1 -3 8 -25 17 -50 18 -49 59 -169 63
-185 20 -75 29 -95 41 -95 8 0 17 15 21 38 9 50 38 96 71 112 53 25 68 27 258
34 94 4 211 9 260 11 50 3 166 7 260 11 93 3 171 7 174 10 5 4 -58 153 -96
226 -13 26 -24 51 -25 55 -1 10 -35 86 -65 145 -13 26 -23 51 -21 55 2 5 -8
10 -21 11 -22 3 -23 1 -15 -25z"/>
<path d="M9658 6429 c-50 -25 -76 -62 -84 -117 -7 -49 8 -131 32 -169 21 -33
79 -74 119 -83 137 -31 212 129 135 287 -17 35 -42 70 -55 79 -36 24 -104 25
-147 3z"/>
<path d="M9240 5599 c0 -60 -34 -114 -84 -134 -34 -14 -71 -16 -251 -11 -115
3 -302 8 -415 11 -113 3 -279 7 -370 10 -91 3 -283 8 -427 11 l-262 6 10 -33
c6 -19 13 -43 16 -54 3 -11 9 -24 13 -30 4 -5 10 -22 14 -37 3 -16 7 -31 8
-35 13 -51 29 -78 47 -81 12 -2 21 0 20 5 -8 48 41 99 107 109 43 6 251 -1
329 -11 17 -2 75 -7 130 -10 55 -4 103 -9 106 -13 4 -4 9 -36 13 -72 10 -107
35 -220 63 -280 33 -73 77 -156 90 -170 7 -8 34 -42 61 -75 58 -74 159 -173
184 -181 10 -3 18 -9 18 -13 0 -6 96 -57 155 -82 68 -28 209 -41 283 -24 154
33 274 205 267 380 -3 58 -15 134 -24 153 -30 61 -61 130 -61 136 0 4 -9 16
-20 28 -11 12 -20 28 -20 36 0 15 26 14 104 -4 33 -8 32 -16 6 111 -10 49 -16
81 -26 140 -3 17 -7 38 -10 47 -3 9 -7 26 -9 37 -3 12 -7 31 -10 44 -3 12 -8
38 -11 57 -10 58 -15 70 -30 70 -10 0 -14 -12 -14 -41z m-825 -314 c28 -3 64
-8 80 -11 17 -2 44 -7 60 -9 62 -9 101 -15 125 -20 14 -3 45 -7 70 -10 56 -7
347 -53 377 -60 27 -6 101 -131 109 -186 23 -139 -16 -220 -132 -280 -87 -45
-170 -51 -293 -19 -150 38 -242 92 -361 210 -42 41 -109 140 -95 140 3 0 1 9
-4 19 -10 18 -17 60 -25 161 -5 49 7 82 27 75 6 -2 35 -7 62 -10z"/>
</g>
</svg>
