<?xml version="1.0" standalone="no"?>
<!DOCTYPE svg PUBLIC "-//W3C//DTD SVG 20010904//EN"
 "http://www.w3.org/TR/2001/REC-SVG-20010904/DTD/svg10.dtd">
<svg version="1.0" xmlns="http://www.w3.org/2000/svg"
 width="500.000000pt" height="500.000000pt" viewBox="0 0 500.000000 500.000000"
 preserveAspectRatio="xMidYMid meet">

<g transform="translate(0.000000,500.000000) scale(0.100000,-0.100000)"
fill="#000000" stroke="none">
<path d="M3810 3085 l0 -75 75 0 75 0 0 75 0 75 -75 0 -75 0 0 -75z"/>
<path d="M742 3004 l-142 -106 0 -89 c0 -70 -3 -89 -14 -89 -9 0 -23 -26 -37
-67 -12 -38 -24 -74 -27 -80 -3 -9 8 -13 37 -13 l41 0 0 -135 c0 -110 -3 -135
-14 -135 -9 0 -24 -29 -40 -78 -14 -42 -26 -80 -26 -85 0 -11 79 -8 125 4 40
11 87 47 108 84 7 12 14 86 17 180 l5 160 101 3 c93 2 103 5 124 27 13 14 27
25 32 25 4 0 8 -112 8 -249 l0 -249 80 26 80 26 0 356 c0 352 0 355 -24 406
-34 72 -78 119 -148 154 -105 52 -121 48 -286 -76z m225 -82 c49 -35 66 -70
67 -137 l1 -60 -105 -3 c-98 -3 -107 -5 -132 -29 l-28 -27 0 135 c0 75 3 139
8 143 4 5 41 6 83 4 57 -3 84 -10 106 -26z"/>
<path d="M1478 2842 l-128 -97 0 -155 c0 -148 1 -159 26 -208 28 -57 69 -96
129 -123 65 -30 103 -25 148 18 l38 38 -3 -90 -3 -90 -129 -5 -129 -5 -24 -69
c-12 -39 -23 -74 -23 -78 0 -11 267 -9 318 2 58 14 98 45 122 95 19 39 20 62
20 378 0 283 2 337 14 337 9 0 24 29 39 75 l26 75 -157 -1 -157 0 -127 -97z
m212 -252 l0 -200 -61 0 c-56 0 -64 3 -95 34 l-34 34 0 166 0 166 95 0 95 0 0
-200z"/>
<path d="M1977 2865 l-26 -75 40 0 39 0 0 -276 0 -275 23 7 c12 4 45 15 72 24
l50 17 3 251 2 252 43 0 c24 0 48 -5 55 -12 7 -7 12 -36 12 -65 0 -29 3 -53 7
-53 4 0 37 10 75 22 l68 22 0 48 c0 90 -47 154 -131 179 l-40 12 -49 -48 -49
-48 -27 33 c-30 35 -79 60 -118 60 -21 0 -27 -9 -49 -75z"/>
<path d="M2658 2844 l-128 -96 0 -161 c0 -142 2 -166 21 -204 41 -85 133 -143
226 -143 34 0 55 11 142 77 l103 77 -4 190 c-4 209 -7 224 -69 285 -39 40 -76
59 -125 66 -37 5 -46 0 -166 -91z m185 -82 c21 -21 22 -32 25 -197 l3 -175
-61 0 c-57 0 -65 3 -96 34 l-34 34 0 167 0 167 70 -4 c56 -3 75 -8 93 -26z"/>
<path d="M3757 2865 l-26 -75 40 0 39 0 0 -204 c0 -217 4 -243 48 -289 37 -39
74 -57 120 -57 l38 0 22 68 c12 38 22 71 22 75 0 4 -20 7 -44 7 -31 0 -46 5
-50 16 -3 9 -6 106 -6 217 0 178 -2 206 -19 237 -20 39 -89 80 -132 80 -25 0
-29 -6 -52 -75z"/>
<path d="M4137 2865 l-26 -75 40 0 39 0 0 -415 0 -415 28 6 c15 3 47 8 72 12
l45 8 3 152 c1 83 5 152 8 152 3 0 20 -11 38 -25 43 -32 88 -32 154 1 58 29
96 69 124 132 17 38 19 63 16 226 l-3 184 -31 39 c-39 49 -84 79 -129 87 -33
6 -43 2 -106 -45 l-70 -52 -31 38 c-33 39 -81 65 -122 65 -21 0 -27 -9 -49
-75z m374 -96 c19 -19 20 -30 17 -171 l-3 -150 -33 -29 c-28 -25 -40 -29 -92
-29 l-60 0 0 200 0 200 75 0 c63 0 78 -3 96 -21z"/>
<path d="M3205 2918 c-19 -51 -45 -133 -45 -140 0 -4 78 -8 173 -9 l172 0 -63
-23 c-35 -13 -65 -26 -66 -27 -7 -9 -266 -461 -266 -465 0 -2 118 -4 263 -4
l263 0 22 68 c12 38 22 71 22 75 0 4 -89 7 -197 8 l-198 1 45 19 c25 11 51 23
58 27 11 6 264 431 279 470 4 9 -45 12 -226 12 -176 0 -233 -3 -236 -12z"/>
</g>
</svg>
