<?xml version="1.0" encoding="UTF-8"?>
<svg xmlns="http://www.w3.org/2000/svg" xmlns:xlink="http://www.w3.org/1999/xlink" width="300px" height="117px" viewBox="0 0 299 117" version="1.1">
<g id="surface1">
<path style=" stroke:none;fill-rule:nonzero;fill:rgb(0%,0%,0%);fill-opacity:1;" d="M 108.855469 0.257812 C 100.515625 0.398438 98.367188 0.492188 97.128906 0.84375 C 96.753906 0.960938 96.777344 1.03125 97.199219 1.800781 C 97.457031 2.269531 97.617188 2.785156 97.523438 2.996094 C 97.457031 3.183594 97.523438 3.488281 97.664062 3.652344 C 97.945312 4 97.757812 4.445312 97.316406 4.445312 C 97.152344 4.445312 96.707031 4.890625 96.359375 5.429688 C 96.007812 5.992188 95.328125 6.902344 94.863281 7.464844 C 94.394531 8.027344 93.648438 9.195312 93.203125 10.039062 C 92.527344 11.277344 92.246094 11.582031 91.640625 11.746094 C 90.960938 11.933594 90.867188 12.027344 90.9375 12.707031 C 90.984375 13.386719 90.867188 13.523438 89.535156 14.390625 C 88.136719 15.304688 87.363281 15.75 84.09375 17.574219 C 75.636719 22.277344 64.914062 30.421875 58.023438 37.371094 C 56.296875 39.125 55.246094 40.015625 54.917969 40.015625 C 54.636719 40.015625 53.914062 39.804688 53.304688 39.546875 C 52.089844 39.054688 48.515625 37.746094 46.34375 37.019531 C 45.199219 36.621094 44.734375 36.574219 44.054688 36.761719 C 43.589844 36.878906 43.214844 37.066406 43.214844 37.160156 C 43.214844 37.253906 42.792969 37.8125 42.28125 38.375 C 41.765625 38.9375 41.347656 39.617188 41.347656 39.851562 C 41.347656 40.085938 42.609375 42.613281 44.148438 45.441406 C 45.691406 48.296875 46.953125 50.847656 46.953125 51.105469 C 46.953125 51.386719 46.742188 52.277344 46.460938 53.117188 C 45.480469 56.230469 45.480469 56.136719 45.878906 56.746094 C 46.089844 57.074219 46.320312 57.328125 46.367188 57.328125 C 46.4375 57.328125 46.90625 56.441406 47.441406 55.339844 C 47.957031 54.242188 48.449219 53.351562 48.539062 53.351562 C 48.726562 53.351562 49.054688 53.9375 55.433594 65.636719 C 60.617188 75.160156 60.992188 75.957031 61.15625 77.945312 C 61.226562 79.1875 61.15625 79.652344 60.78125 80.425781 L 60.289062 81.363281 L 61.832031 82.695312 C 63.117188 83.820312 63.421875 83.984375 63.722656 83.726562 C 64.402344 83.140625 72.179688 74.203125 72.179688 73.96875 C 72.179688 73.757812 69.074219 70.855469 68.722656 70.714844 C 68.628906 70.691406 67.976562 71.394531 67.273438 72.304688 C 66.574219 73.195312 65.921875 73.945312 65.804688 73.945312 C 65.710938 73.945312 65.5 73.664062 65.359375 73.289062 C 65.195312 72.9375 64.308594 71.253906 63.351562 69.542969 C 62.417969 67.8125 61.691406 66.292969 61.738281 66.152344 C 61.902344 65.777344 67.835938 58.734375 69.65625 56.746094 C 70.007812 56.347656 70.3125 55.972656 70.3125 55.855469 C 70.3125 55.480469 71.316406 55.738281 73.699219 56.722656 C 76.757812 58.007812 77.785156 58.875 77.785156 60.183594 C 77.785156 60.699219 77.625 61.425781 77.414062 61.824219 L 77.039062 62.570312 L 78.394531 63.789062 C 79.164062 64.46875 79.890625 65.027344 80.007812 65.050781 C 80.214844 65.050781 82.273438 62.757812 87.691406 56.558594 C 89.164062 54.871094 89.351562 54.734375 89.910156 54.917969 C 90.238281 55.011719 91.21875 55.105469 92.082031 55.082031 L 93.648438 55.058594 L 92.945312 56.089844 C 91.5 58.195312 90.960938 60.277344 91.359375 62.21875 C 92.011719 65.472656 94.324219 67.460938 97.992188 67.953125 C 101.988281 68.515625 110.210938 64.628906 115 59.949219 C 117.101562 57.867188 119.132812 54.847656 119.808594 52.695312 C 121.09375 48.71875 119.554688 44.414062 116.144531 42.425781 L 115.046875 41.769531 L 116.796875 41.347656 C 117.753906 41.136719 119.761719 40.667969 121.234375 40.363281 C 127.9375 38.914062 129.925781 38.421875 130.113281 38.234375 C 130.296875 38.046875 129.550781 34 129.292969 33.71875 C 129.222656 33.671875 128.3125 33.859375 127.285156 34.140625 C 126.234375 34.421875 125.347656 34.609375 125.324219 34.585938 C 125.300781 34.539062 125.160156 33.671875 124.996094 32.667969 C 124.832031 31.636719 124.273438 28.898438 123.757812 26.582031 C 122.167969 19.421875 122.121094 19.09375 122.214844 17.972656 C 122.519531 14.953125 126.09375 10.296875 126.957031 11.839844 C 127.960938 13.640625 129.832031 14.507812 131.792969 14.039062 C 134.363281 13.40625 135.671875 11.136719 135.015625 8.402344 C 134.597656 6.644531 133.007812 5.054688 131.351562 4.703125 C 129.082031 4.234375 126.632812 5.03125 124.527344 6.925781 C 123.40625 7.933594 121.703125 10.34375 121.375 11.394531 C 121.28125 11.652344 121.070312 12.003906 120.90625 12.144531 C 120.675781 12.355469 120.488281 11.910156 119.972656 10.015625 C 119.648438 8.703125 119.273438 7.535156 119.179688 7.441406 C 118.828125 7.089844 116.46875 7.769531 115.558594 8.472656 C 113.945312 9.710938 111.332031 10.835938 107.992188 11.699219 C 107.429688 11.839844 106.984375 12.074219 107.007812 12.238281 C 107.03125 13.175781 107.875 16.238281 108.105469 16.332031 C 108.363281 16.402344 111.191406 15.84375 111.9375 15.5625 C 112.195312 15.46875 112.359375 15.980469 112.6875 17.949219 C 112.917969 19.351562 113.667969 22.980469 114.34375 26.019531 C 116.027344 33.554688 116.214844 34.75 115.816406 35.917969 C 115.582031 36.667969 115.300781 36.972656 114.390625 37.441406 C 113.152344 38.070312 113.175781 37.90625 113.667969 40.574219 L 113.832031 41.488281 L 112.894531 41.347656 C 110.511719 40.949219 105.933594 42.261719 99.792969 45.070312 C 95.027344 47.246094 94.347656 47.503906 93.109375 47.503906 C 91.894531 47.503906 91.570312 47.199219 91.570312 46.074219 C 91.570312 44.8125 92.457031 44.039062 95.84375 42.308594 C 98.273438 41.066406 98.972656 40.574219 100.585938 38.960938 C 104.578125 34.984375 106.027344 29.765625 104.371094 25.34375 C 103.226562 22.230469 100.773438 19.773438 97.757812 18.695312 C 96.054688 18.066406 95.984375 17.949219 95.9375 15.863281 C 95.890625 13.992188 96.195312 13.757812 98.390625 13.96875 C 99.816406 14.085938 100.046875 14.039062 100.867188 13.523438 C 101.332031 13.199219 101.941406 12.542969 102.199219 12.074219 C 102.453125 11.605469 102.78125 11.230469 102.921875 11.230469 C 103.0625 11.230469 103.644531 10.996094 104.207031 10.695312 C 104.765625 10.390625 106.027344 9.898438 106.984375 9.617188 C 107.945312 9.3125 108.902344 8.9375 109.089844 8.773438 C 109.273438 8.609375 110.070312 8.261719 110.839844 8.003906 C 111.609375 7.746094 113.292969 7.160156 114.578125 6.691406 C 115.863281 6.246094 117.148438 5.875 117.402344 5.851562 C 117.683594 5.851562 118.035156 5.6875 118.199219 5.5 C 118.363281 5.3125 118.6875 5.148438 118.945312 5.148438 C 119.203125 5.148438 120.488281 4.820312 121.796875 4.421875 C 123.082031 4.023438 124.996094 3.464844 126.023438 3.160156 C 127.050781 2.832031 129.105469 2.222656 130.578125 1.800781 C 132.050781 1.355469 133.710938 0.867188 134.269531 0.726562 C 134.808594 0.5625 135.25 0.351562 135.25 0.257812 C 135.25 0.0234375 122.238281 0.0234375 108.855469 0.257812 Z M 103.085938 3.207031 C 103.855469 3.605469 103.855469 3.628906 103.109375 4.140625 C 102.453125 4.5625 101.167969 4.585938 99.699219 4.1875 C 98.832031 3.976562 98.460938 3.511719 99.136719 3.511719 C 99.324219 3.511719 99.511719 3.371094 99.582031 3.183594 C 99.839844 2.527344 101.800781 2.550781 103.085938 3.207031 Z M 92.738281 16.941406 C 92.738281 17.714844 92.738281 17.714844 91.40625 17.878906 C 90.679688 17.972656 89.792969 18.089844 89.464844 18.183594 C 88.648438 18.367188 89.046875 17.996094 90.75 17.011719 C 92.550781 15.957031 92.738281 15.957031 92.738281 16.941406 Z M 81.757812 22.417969 C 81.757812 22.535156 81.546875 22.816406 81.265625 23.074219 C 80.308594 23.9375 78.746094 26.605469 78.160156 28.359375 C 77.367188 30.699219 77.320312 33.859375 78.019531 35.917969 C 79.515625 40.292969 83.417969 43.265625 87.667969 43.289062 L 88.789062 43.289062 L 87.808594 44.742188 C 86.640625 46.472656 86.195312 47.804688 86.195312 49.679688 C 86.195312 50.636719 86.078125 51.222656 85.824219 51.503906 C 85.472656 51.902344 85.355469 51.855469 83.441406 50.894531 C 82.320312 50.355469 79.46875 49.1875 77.085938 48.320312 C 74.703125 47.480469 71.199219 46.191406 69.261719 45.464844 C 65.570312 44.109375 64.261719 43.640625 60.265625 42.214844 C 58.914062 41.746094 57.746094 41.277344 57.628906 41.183594 C 57.464844 41.042969 61.296875 37.113281 62.835938 35.894531 C 63.28125 35.519531 64.449219 34.539062 65.40625 33.695312 C 67.71875 31.636719 73.371094 27.402344 75.847656 25.832031 C 76.945312 25.132812 77.996094 24.453125 78.183594 24.289062 C 78.652344 23.914062 81.359375 22.277344 81.59375 22.253906 C 81.6875 22.230469 81.757812 22.324219 81.757812 22.417969 Z M 91.429688 23.65625 C 93.4375 24.59375 96.101562 27.824219 97.082031 30.445312 C 97.59375 31.847656 97.617188 34.984375 97.128906 35.917969 C 96.707031 36.714844 95.679688 37.722656 94.910156 38.117188 C 94.113281 38.515625 92.035156 38.421875 90.914062 37.90625 C 88.136719 36.644531 85.074219 32.082031 84.839844 28.828125 C 84.679688 26.300781 85.519531 24.382812 87.175781 23.5625 C 88.25 23.027344 90.191406 23.074219 91.429688 23.65625 Z M 53.679688 48.765625 C 54.542969 49.210938 57.699219 50.519531 60.6875 51.714844 L 66.128906 53.867188 L 65.710938 54.382812 C 65.476562 54.640625 64.867188 55.339844 64.355469 55.925781 C 63.839844 56.511719 62.742188 57.773438 61.902344 58.734375 C 61.0625 59.695312 60.105469 60.792969 59.753906 61.191406 C 59.425781 61.566406 59.097656 61.847656 59.027344 61.777344 C 58.984375 61.707031 57.859375 59.761719 56.53125 57.445312 C 55.222656 55.128906 53.515625 52.253906 52.769531 51.058594 C 51.648438 49.257812 51.4375 48.789062 51.625 48.414062 C 51.765625 48.179688 51.929688 47.96875 51.996094 47.96875 C 52.042969 47.96875 52.816406 48.320312 53.679688 48.765625 Z M 113.011719 49.703125 C 113.898438 50.167969 114.578125 51.667969 114.390625 52.789062 C 113.597656 57.632812 106.214844 62.40625 101.03125 61.449219 C 100 61.238281 98.4375 59.902344 97.992188 58.828125 C 97.292969 57.144531 97.363281 54.6875 98.109375 54.265625 C 98.296875 54.148438 100.398438 53.164062 102.757812 52.042969 C 108.785156 49.234375 111.074219 48.695312 113.011719 49.703125 Z M 113.011719 49.703125 "/>
<path style=" stroke:none;fill-rule:nonzero;fill:rgb(0%,0%,0%);fill-opacity:1;" d="M 152.351562 4.234375 C 146.929688 4.9375 142.375 8.425781 139.921875 13.6875 C 138.707031 16.285156 138.265625 18.160156 138.125 21.410156 C 138.007812 23.796875 138.078125 24.546875 138.496094 26.207031 C 139.710938 31.074219 142.515625 34.609375 146.742188 36.621094 C 149.054688 37.722656 150.832031 38.140625 153.585938 38.304688 C 162.347656 38.796875 168.886719 32.945312 170.289062 23.375 C 170.640625 20.988281 170.5 17.574219 169.9375 15.5625 C 169.027344 12.121094 166.621094 8.75 163.820312 6.878906 C 160.734375 4.820312 156.015625 3.742188 152.351562 4.234375 Z M 157.207031 9.21875 C 159.542969 10.367188 160.945312 14.507812 160.945312 20.3125 C 160.945312 23.328125 160.664062 25.597656 159.964844 27.964844 C 158.75 32.175781 157.09375 33.789062 154.078125 33.71875 C 149.710938 33.625 147.632812 29.8125 147.632812 21.902344 C 147.632812 17.902344 148.167969 14.976562 149.335938 12.542969 C 150.527344 10.132812 151.4375 9.21875 153.191406 8.75 C 154.546875 8.402344 155.832031 8.539062 157.207031 9.21875 Z M 157.207031 9.21875 "/>
<path style=" stroke:none;fill-rule:nonzero;fill:rgb(0%,0%,0%);fill-opacity:1;" d="M 179.421875 9.640625 C 179.238281 10.0625 178.09375 12.449219 176.902344 14.929688 C 175.710938 17.433594 174.726562 19.609375 174.726562 19.75 C 174.726562 20.007812 177.53125 21.292969 178.046875 21.292969 C 178.117188 21.292969 178.464844 20.824219 178.792969 20.265625 C 180.496094 17.363281 182.71875 15.445312 184.398438 15.445312 C 185.167969 15.445312 191.40625 17.597656 193.042969 18.414062 L 193.71875 18.765625 L 191.757812 19.820312 C 190.683594 20.382812 188.789062 21.457031 187.574219 22.207031 C 186.359375 22.957031 181.6875 25.808594 177.179688 28.546875 C 172.695312 31.285156 168.839844 33.695312 168.632812 33.90625 C 168.09375 34.445312 166.714844 37.929688 166.949219 38.164062 C 167.042969 38.257812 171.039062 39.875 175.78125 41.722656 C 180.542969 43.59375 186.175781 45.816406 188.300781 46.660156 C 190.425781 47.503906 192.222656 48.203125 192.316406 48.203125 C 192.597656 48.203125 197.878906 37.136719 197.691406 36.949219 C 197.480469 36.761719 194.304688 35.519531 194.257812 35.613281 C 193.277344 37.488281 191.171875 39.945312 189.933594 40.667969 C 188.183594 41.699219 186.992188 41.511719 182.320312 39.546875 C 180.148438 38.609375 178.09375 37.769531 177.765625 37.628906 C 177.226562 37.417969 177.296875 37.347656 179.050781 36.527344 C 180.707031 35.753906 193.507812 27.824219 200.167969 23.46875 C 202.574219 21.902344 202.597656 21.855469 203.273438 20.265625 C 203.648438 19.375 203.902344 18.554688 203.878906 18.4375 C 203.832031 18.320312 202.597656 17.738281 201.125 17.175781 C 199.652344 16.589844 194.328125 14.507812 189.328125 12.519531 C 184.304688 10.53125 180.101562 8.890625 179.984375 8.890625 C 179.84375 8.890625 179.585938 9.242188 179.421875 9.640625 Z M 179.421875 9.640625 "/>
<path style=" stroke:none;fill-rule:nonzero;fill:rgb(0%,0%,0%);fill-opacity:1;" d="M 214.277344 10.179688 C 213.785156 10.742188 213.667969 10.765625 210.773438 10.789062 C 208.320312 10.8125 207.921875 10.859375 208.597656 11.042969 C 209.042969 11.183594 210.304688 11.558594 211.402344 11.863281 C 212.5 12.167969 214.648438 12.800781 216.191406 13.269531 C 217.734375 13.710938 219.414062 14.203125 219.929688 14.320312 C 221.214844 14.671875 221.332031 14.835938 220.816406 15.609375 C 219.039062 18.160156 219.765625 21.246094 222.519531 22.957031 C 224.203125 23.984375 226.914062 23.398438 228.339844 21.714844 C 229.15625 20.730469 229.832031 19.257812 229.855469 18.414062 C 229.855469 18.066406 229.949219 17.785156 230.066406 17.785156 C 230.675781 17.785156 240.4375 21.902344 243.523438 23.421875 C 246.394531 24.875 251.066406 27.730469 253.261719 29.367188 C 257.863281 32.832031 262.046875 37.441406 264.148438 41.417969 C 265.667969 44.226562 266.296875 45.933594 267.253906 49.726562 C 268.003906 52.601562 268.046875 52.976562 268.027344 56.746094 C 268.027344 60.441406 267.957031 60.933594 267.277344 63.601562 C 266.085938 68.210938 264.195312 72.234375 261.695312 75.488281 C 259.171875 78.789062 253.332031 84.496094 249.546875 87.375 C 247.703125 88.757812 246.207031 89.925781 246.207031 89.996094 C 246.207031 90.042969 246.441406 89.996094 246.746094 89.878906 C 247.027344 89.761719 247.867188 89.621094 248.613281 89.527344 C 251.113281 89.269531 253.167969 87.773438 258.820312 82.132812 C 266.554688 74.410156 269.613281 69.21875 271.132812 61.191406 C 271.691406 58.242188 271.667969 51.832031 271.109375 49.1875 C 270.035156 44.15625 267.347656 38.351562 264.148438 34.164062 C 263.914062 33.835938 262.628906 32.480469 261.320312 31.167969 C 258.402344 28.171875 253.472656 24.40625 250.0625 22.535156 C 248.472656 21.667969 239.246094 17.082031 239.082031 17.082031 C 239.011719 17.082031 238.359375 16.824219 237.660156 16.496094 C 231.957031 13.875 222.683594 10.953125 216.9375 9.945312 C 214.601562 9.523438 214.882812 9.5 214.277344 10.179688 Z M 220.277344 12.636719 C 220.277344 12.753906 220.164062 12.871094 220.023438 12.871094 C 219.90625 12.871094 219.859375 12.753906 219.929688 12.636719 C 220 12.496094 220.117188 12.402344 220.183594 12.402344 C 220.230469 12.402344 220.277344 12.496094 220.277344 12.636719 Z M 230.207031 14.976562 C 230.277344 15.09375 230.183594 15.210938 229.972656 15.210938 C 229.761719 15.210938 229.667969 15.09375 229.738281 14.976562 C 229.808594 14.835938 229.925781 14.742188 229.972656 14.742188 C 230.019531 14.742188 230.136719 14.835938 230.207031 14.976562 Z M 252.910156 27.660156 C 252.84375 27.847656 252.773438 27.777344 252.773438 27.519531 C 252.75 27.261719 252.820312 27.121094 252.886719 27.214844 C 252.957031 27.285156 252.980469 27.496094 252.910156 27.660156 Z M 252.910156 27.660156 "/>
<path style=" stroke:none;fill-rule:nonzero;fill:rgb(0%,0%,0%);fill-opacity:1;" d="M 208.414062 25.460938 C 207.757812 26.441406 207.199219 27.332031 207.199219 27.402344 C 207.199219 27.496094 207.992188 28.054688 208.949219 28.664062 C 209.90625 29.25 210.703125 29.789062 210.703125 29.859375 C 210.703125 29.90625 210.046875 30.816406 209.230469 31.894531 C 208.4375 32.945312 206.101562 36.199219 204.066406 39.125 C 199.839844 45.183594 198.578125 46.566406 197.222656 46.566406 C 196.734375 46.542969 196.078125 46.402344 195.75 46.214844 C 195.425781 46.027344 195.050781 45.886719 194.933594 45.863281 C 194.675781 45.863281 192.714844 48.671875 192.714844 49.023438 C 192.738281 49.28125 205.609375 58.335938 206.125 58.453125 C 206.472656 58.523438 208.902344 55.058594 208.761719 54.6875 C 208.714844 54.523438 207.96875 53.984375 207.105469 53.492188 C 206.167969 52.953125 205.632812 52.484375 205.726562 52.324219 C 205.820312 52.183594 206.636719 51.058594 207.546875 49.84375 C 208.4375 48.625 210.445312 45.792969 211.988281 43.570312 C 214.953125 39.289062 215.769531 38.117188 219.4375 32.921875 C 221.285156 30.328125 221.679688 29.648438 221.445312 29.367188 C 220.933594 28.757812 218.949219 27.613281 218.386719 27.613281 C 217.125 27.613281 214.019531 26.230469 210.957031 24.289062 C 210.375 23.9375 209.859375 23.632812 209.789062 23.632812 C 209.695312 23.632812 209.089844 24.453125 208.414062 25.460938 Z M 208.414062 25.460938 "/>
<path style=" stroke:none;fill-rule:nonzero;fill:rgb(0%,0%,0%);fill-opacity:1;" d="M 226.632812 37.605469 C 225.722656 38.351562 224.972656 39.03125 224.972656 39.101562 C 224.949219 39.195312 225.582031 39.96875 226.351562 40.808594 C 227.125 41.675781 227.753906 42.449219 227.730469 42.542969 C 227.730469 42.636719 226.820312 43.40625 225.699219 44.25 C 224.578125 45.113281 220.722656 48.296875 217.125 51.363281 C 213.527344 54.40625 209.742188 57.609375 208.738281 58.453125 C 207.734375 59.320312 205.890625 60.886719 204.652344 61.964844 C 201.40625 64.746094 200.097656 65.566406 198.742188 65.707031 C 197.738281 65.800781 197.503906 65.730469 196.710938 65.097656 L 195.820312 64.398438 L 194.398438 65.566406 C 193.601562 66.222656 192.949219 66.832031 192.949219 66.949219 C 192.949219 67.179688 203.085938 79.210938 203.484375 79.464844 C 203.695312 79.582031 204.230469 79.1875 206.449219 77.289062 L 207.246094 76.636719 L 205.867188 75.136719 L 204.511719 73.640625 L 205.304688 73.03125 C 205.726562 72.703125 207.734375 71.019531 209.765625 69.3125 C 211.800781 67.625 213.527344 66.222656 213.574219 66.222656 C 213.644531 66.222656 214.136719 67.132812 214.671875 68.234375 C 216.542969 72.09375 220.652344 75.417969 224.742188 76.402344 C 231.023438 77.875 238.871094 74.667969 243.636719 68.65625 C 246.160156 65.472656 247.375 62.382812 247.375 59.0625 C 247.375 56.699219 246.769531 54.734375 245.367188 52.601562 C 243.542969 49.867188 241.070312 48.203125 237.355469 47.269531 L 236.328125 46.988281 L 237.402344 45.910156 L 238.453125 44.8125 L 237.378906 43.617188 C 236.722656 42.914062 235.71875 42.144531 234.878906 41.746094 C 233.945312 41.277344 232.707031 40.316406 231.023438 38.679688 C 229.667969 37.347656 228.5 36.269531 228.40625 36.269531 C 228.339844 36.269531 227.519531 36.878906 226.632812 37.605469 Z M 235.300781 50.683594 C 236.699219 51.152344 238.335938 52.625 238.851562 53.867188 C 240.019531 56.746094 238.710938 60.300781 235.183594 63.882812 C 229.761719 69.359375 224.15625 71.136719 220.722656 68.492188 C 220.183594 68.09375 219.4375 67.367188 219.0625 66.902344 C 218.246094 65.894531 217.21875 63.4375 217.429688 63.039062 C 217.59375 62.757812 218.691406 61.800781 222.753906 58.382812 C 223.644531 57.609375 226.164062 55.480469 228.316406 53.632812 C 232.003906 50.496094 232.261719 50.308594 233.21875 50.308594 C 233.757812 50.308594 234.691406 50.472656 235.300781 50.683594 Z M 235.300781 50.683594 "/>
<path style=" stroke:none;fill-rule:nonzero;fill:rgb(0%,0%,0%);fill-opacity:1;" d="M 172.90625 55.691406 C 169.472656 56.160156 166.457031 57.539062 163.351562 60.019531 C 157.417969 64.769531 154.21875 71.464844 155.363281 76.753906 C 155.597656 77.804688 155.550781 78.085938 155.035156 79.394531 C 154.734375 80.191406 154.335938 81.410156 154.148438 82.0625 C 153.984375 82.742188 153.796875 83.304688 153.726562 83.304688 C 153.65625 83.304688 153.285156 82.460938 152.933594 81.457031 C 150.878906 75.628906 147.304688 70.433594 143.519531 67.71875 C 141.769531 66.457031 138.707031 65.003906 136.652344 64.445312 C 134.292969 63.789062 129.808594 63.835938 127.542969 64.5625 C 125.488281 65.191406 123.78125 66.035156 122.589844 66.972656 C 121.46875 67.835938 121.445312 68.445312 122.425781 70.855469 C 125.160156 77.710938 130.273438 83.234375 136.394531 85.878906 C 139.875 87.398438 142.023438 87.820312 146.929688 87.960938 L 151.25 88.101562 L 151.765625 89.152344 C 152.558594 90.792969 152.699219 91.890625 152.511719 94.558594 C 152.421875 95.894531 152.328125 100.785156 152.328125 105.441406 L 152.304688 113.886719 L 152.839844 114.378906 C 153.449219 114.941406 154.546875 115.035156 155.128906 114.589844 C 155.480469 114.332031 155.527344 113.140625 155.644531 104.011719 C 155.714844 96.804688 155.878906 92.617188 156.132812 90.089844 C 156.71875 84.753906 157.441406 81.527344 158.167969 81.175781 C 158.351562 81.082031 159.800781 80.800781 161.390625 80.519531 C 164.800781 79.933594 169.332031 78.507812 172.320312 77.078125 C 180.101562 73.359375 184.492188 67.367188 184.609375 60.253906 C 184.65625 57.679688 184.585938 57.5625 182.554688 56.839844 C 179.726562 55.855469 175.523438 55.339844 172.90625 55.691406 Z M 179.632812 59.390625 L 181.152344 59.785156 L 181.128906 61.308594 C 181.082031 66.339844 176.992188 71.464844 170.664062 74.410156 C 167.089844 76.097656 159.777344 78.039062 159.777344 77.335938 C 159.777344 77.265625 160.128906 76.660156 160.574219 75.980469 C 162.488281 73.007812 166.414062 69.3125 170.40625 66.738281 C 171.691406 65.894531 172.882812 65.050781 173.046875 64.863281 C 173.863281 63.835938 172.742188 62.035156 171.480469 62.359375 C 170.59375 62.59375 166.714844 65.214844 164.308594 67.203125 C 163.164062 68.164062 161.414062 69.824219 160.480469 70.878906 C 159.519531 71.929688 158.703125 72.703125 158.65625 72.585938 C 158.609375 72.445312 158.820312 71.699219 159.078125 70.878906 C 160.664062 66.199219 166.039062 61.003906 170.992188 59.414062 C 172.695312 58.851562 177.460938 58.851562 179.632812 59.390625 Z M 136.769531 67.859375 C 140.367188 68.984375 143.144531 70.996094 145.574219 74.226562 C 146.953125 76.027344 148.894531 79.417969 148.753906 79.792969 C 148.707031 79.910156 148.003906 79.417969 147.164062 78.71875 C 144.222656 76.191406 137.121094 71.839844 135.976562 71.839844 C 135.34375 71.839844 134.316406 72.726562 134.316406 73.265625 C 134.316406 74.179688 134.808594 74.644531 136.699219 75.605469 C 140.484375 77.5 145.296875 80.941406 147.492188 83.304688 C 148.660156 84.542969 148.660156 84.542969 148.074219 84.753906 C 147.398438 85.011719 143.285156 84.636719 140.972656 84.078125 C 138.894531 83.585938 136.207031 82.460938 134.457031 81.339844 C 131.257812 79.253906 127.777344 75.183594 126.164062 71.582031 C 125.019531 69.03125 125.019531 69.125 126.375 68.445312 C 128.3125 67.460938 129.949219 67.15625 132.679688 67.25 C 134.339844 67.320312 135.671875 67.507812 136.769531 67.859375 Z M 136.769531 67.859375 "/>
<path style=" stroke:none;fill-rule:nonzero;fill:rgb(0%,0%,0%);fill-opacity:1;" d="M 44.945312 82.53125 C 44.265625 82.671875 43.890625 84.496094 44.265625 85.785156 C 44.757812 87.445312 46.484375 90.886719 47.839844 92.898438 C 50.851562 97.367188 56.25 102 63.328125 106.1875 C 66.714844 108.203125 71.738281 110.355469 72.25 110.050781 C 72.390625 109.980469 72.414062 110.027344 72.34375 110.144531 C 72.25 110.285156 72.390625 110.449219 72.648438 110.519531 C 73.417969 110.730469 73.394531 110.285156 72.601562 109.464844 C 71.082031 107.921875 70.917969 107.6875 71.222656 107.3125 C 71.574219 106.890625 72.90625 107.101562 75.917969 108.039062 C 76.734375 108.320312 74.492188 107.054688 73 106.398438 C 69.097656 104.761719 65.804688 103.125 63.304688 101.578125 C 61.832031 100.667969 60.195312 99.730469 59.683594 99.472656 C 59.167969 99.238281 57.90625 98.375 56.878906 97.578125 C 52.699219 94.277344 49.148438 89.832031 46.671875 84.753906 C 46.019531 83.445312 45.480469 82.390625 45.457031 82.390625 C 45.457031 82.414062 45.199219 82.484375 44.945312 82.53125 Z M 44.945312 82.53125 "/>
</g>
</svg>
